<mxfile host="app.diagrams.net" modified="2023-05-10T15:04:45.407Z" agent="Mozilla/5.0 (Windows NT 10.0; Win64; x64) AppleWebKit/537.36 (KHTML, like Gecko) Chrome/112.0.0.0 Safari/537.36" etag="V7mkbKuNeAqydlzwwNEa" version="21.1.5" type="github">
  <diagram name="Page-1" id="01yBWUGvolju1bEx7dIv">
    <mxGraphModel dx="1434" dy="796" grid="1" gridSize="10" guides="1" tooltips="1" connect="1" arrows="1" fold="1" page="1" pageScale="1" pageWidth="827" pageHeight="1169" math="0" shadow="0">
      <root>
        <mxCell id="0" />
        <mxCell id="1" parent="0" />
        <mxCell id="wbF5UutYFp_3wk20_LOU-1" value="Chaine d&#39;information&lt;br&gt;" style="swimlane;whiteSpace=wrap;html=1;" vertex="1" parent="1">
          <mxGeometry x="200" y="120" width="450" height="150" as="geometry">
            <mxRectangle x="70" y="160" width="140" height="30" as="alternateBounds" />
          </mxGeometry>
        </mxCell>
        <mxCell id="wbF5UutYFp_3wk20_LOU-7" value="Acquérir&lt;br&gt;" style="rounded=1;whiteSpace=wrap;html=1;arcSize=18;" vertex="1" parent="wbF5UutYFp_3wk20_LOU-1">
          <mxGeometry x="20" y="70" width="120" height="60" as="geometry" />
        </mxCell>
        <mxCell id="wbF5UutYFp_3wk20_LOU-8" value="Traiter" style="rounded=1;whiteSpace=wrap;html=1;" vertex="1" parent="wbF5UutYFp_3wk20_LOU-1">
          <mxGeometry x="165" y="70" width="120" height="60" as="geometry" />
        </mxCell>
        <mxCell id="wbF5UutYFp_3wk20_LOU-9" value="Communiquer" style="rounded=1;whiteSpace=wrap;html=1;" vertex="1" parent="wbF5UutYFp_3wk20_LOU-1">
          <mxGeometry x="310" y="70" width="120" height="60" as="geometry" />
        </mxCell>
        <mxCell id="wbF5UutYFp_3wk20_LOU-11" value="" style="endArrow=classic;html=1;rounded=0;exitX=1;exitY=0.5;exitDx=0;exitDy=0;entryX=0;entryY=0.5;entryDx=0;entryDy=0;" edge="1" parent="wbF5UutYFp_3wk20_LOU-1" source="wbF5UutYFp_3wk20_LOU-7" target="wbF5UutYFp_3wk20_LOU-8">
          <mxGeometry width="50" height="50" relative="1" as="geometry">
            <mxPoint x="140" y="200" as="sourcePoint" />
            <mxPoint x="240" y="240" as="targetPoint" />
          </mxGeometry>
        </mxCell>
        <mxCell id="wbF5UutYFp_3wk20_LOU-12" value="" style="endArrow=classic;html=1;rounded=0;exitX=1;exitY=0.5;exitDx=0;exitDy=0;entryX=0;entryY=0.5;entryDx=0;entryDy=0;" edge="1" parent="wbF5UutYFp_3wk20_LOU-1" source="wbF5UutYFp_3wk20_LOU-8" target="wbF5UutYFp_3wk20_LOU-9">
          <mxGeometry width="50" height="50" relative="1" as="geometry">
            <mxPoint x="210" y="220" as="sourcePoint" />
            <mxPoint x="260" y="170" as="targetPoint" />
          </mxGeometry>
        </mxCell>
        <mxCell id="wbF5UutYFp_3wk20_LOU-2" value="Chaine d&#39;énergie&lt;br&gt;" style="swimlane;whiteSpace=wrap;html=1;" vertex="1" parent="1">
          <mxGeometry x="100" y="290" width="620" height="140" as="geometry" />
        </mxCell>
        <mxCell id="wbF5UutYFp_3wk20_LOU-13" value="Alimenter&lt;br&gt;" style="rounded=1;whiteSpace=wrap;html=1;" vertex="1" parent="wbF5UutYFp_3wk20_LOU-2">
          <mxGeometry x="20" y="60" width="120" height="60" as="geometry" />
        </mxCell>
        <mxCell id="wbF5UutYFp_3wk20_LOU-15" value="Distribuer" style="rounded=1;whiteSpace=wrap;html=1;" vertex="1" parent="wbF5UutYFp_3wk20_LOU-2">
          <mxGeometry x="170" y="60" width="120" height="60" as="geometry" />
        </mxCell>
        <mxCell id="wbF5UutYFp_3wk20_LOU-16" value="Convertir" style="rounded=1;whiteSpace=wrap;html=1;" vertex="1" parent="wbF5UutYFp_3wk20_LOU-2">
          <mxGeometry x="320" y="60" width="120" height="60" as="geometry" />
        </mxCell>
        <mxCell id="wbF5UutYFp_3wk20_LOU-17" value="Transmettre" style="rounded=1;whiteSpace=wrap;html=1;" vertex="1" parent="wbF5UutYFp_3wk20_LOU-2">
          <mxGeometry x="470" y="60" width="120" height="60" as="geometry" />
        </mxCell>
        <mxCell id="wbF5UutYFp_3wk20_LOU-10" value="" style="endArrow=classic;html=1;rounded=0;" edge="1" parent="1">
          <mxGeometry width="50" height="50" relative="1" as="geometry">
            <mxPoint x="140" y="220" as="sourcePoint" />
            <mxPoint x="220" y="220" as="targetPoint" />
          </mxGeometry>
        </mxCell>
      </root>
    </mxGraphModel>
  </diagram>
</mxfile>
